<?xml version="1.0" encoding="UTF-8"?>
<svg xmlns="http://www.w3.org/2000/svg" viewBox="0 0 512 512" width="100%" height="100%" fill="none">
  <defs>
    <linearGradient id="bg" x1="64" y1="56" x2="448" y2="456" gradientUnits="userSpaceOnUse">
      <stop offset="0" stop-color="#0B4EA2"/>
      <stop offset="1" stop-color="#0AA9C8"/>
    </linearGradient>
    <linearGradient id="sheen" x1="128" y1="80" x2="392" y2="400" gradientUnits="userSpaceOnUse">
      <stop offset="0" stop-color="#FFFFFF" stop-opacity="0.26"/>
      <stop offset="1" stop-color="#FFFFFF" stop-opacity="0"/>
    </linearGradient>
  </defs>

  <rect x="24" y="24" width="464" height="464" rx="112" fill="url(#bg)"/>
  <rect x="40" y="40" width="432" height="432" rx="96" stroke="rgba(255,255,255,0.22)" stroke-width="4"/>
  <ellipse cx="206" cy="164" rx="156" ry="126" fill="url(#sheen)"/>

  <path d="M146 130 L190 184 L234 130 M190 184 V232" stroke="#FFFFFF" stroke-width="20" stroke-linecap="round" stroke-linejoin="round" opacity="0.95"/>
  <path d="M286 230V130H332C357 130 374 148 374 172C374 196 357 214 332 214H286" stroke="#FFFFFF" stroke-width="20" stroke-linecap="round" stroke-linejoin="round" opacity="0.95"/>

  <path d="M186 222V182C186 143 217 112 256 112C295 112 326 143 326 182V222" stroke="#FFFFFF" stroke-width="24" stroke-linecap="round" stroke-linejoin="round" opacity="0.95"/>
  <rect x="146" y="210" width="220" height="188" rx="56" fill="#FFFFFF"/>

  <circle cx="256" cy="292" r="23" fill="#0B4EA2"/>
  <rect x="242" y="290" width="28" height="58" rx="14" fill="#0B4EA2"/>

  <circle cx="390" cy="122" r="44" fill="#10B981"/>
  <path d="M370 122 L384 136 L412 108" stroke="#FFFFFF" stroke-width="14" stroke-linecap="round" stroke-linejoin="round"/>
</svg>